<svg viewBox="4.353 11.903 38.229 32.522" xmlns="http://www.w3.org/2000/svg">
  <defs>
    <clipPath id="hexagon">
      <path d="M435.279,113.284L247.191,4.692c-10.835-6.257-28.567-6.257-39.402,0L19.701,113.284
				C8.865,119.539,0,134.896,0,147.408v217.185c0.843,14.571,8.286,26.639,19.701,34.123l188.088,108.592
				c10.835,6.257,28.567,6.257,39.402,0l188.088-108.592c12.248-8.146,19.219-20.408,19.701-34.123V147.408
				C454.54,134.243,446.657,120.965,435.279,113.284z"></path>
    </clipPath>
    <linearGradient id="top" gradientUnits="userSpaceOnUse" x1="121.0946" y1="55.8074" x2="261.7725" y2="235.867">
      <stop offset="0" style="stop-color: #A47EDE"></stop>
      <stop offset="1" style="stop-color: #9866D3"></stop>
    </linearGradient>
    <linearGradient id="centre" gradientUnits="userSpaceOnUse" x1="314.1754" y1="207.291" x2="443.4638" y2="372.7726">
      <stop offset="0" style="stop-color: #3B009B"></stop>
      <stop offset="1" style="stop-color: #390086"></stop>
    </linearGradient>
    <linearGradient id="bottom" gradientUnits="userSpaceOnUse" x1="115.2882" y1="326.1631" x2="252.7405" y2="502.094">
      <stop offset="0" style="stop-color: #340084"></stop>
      <stop offset="1" style="stop-color: #290064"></stop>
    </linearGradient>
    <mask id="a" x="0" y="0" width="96" height="95.51" maskUnits="userSpaceOnUse">
      <g transform="translate(0 -0.25)">
        <path class="a" d="M68.89,95.6a6,6,0,0,0,3.93-.44L92.6,85.65A6,6,0,0,0,96,80.24V15.76a6,6,0,0,0-3.4-5.41L72.82.84A6,6,0,0,0,68.34.55,6,6,0,0,0,66,2L34.12,37.26,15.5,22l-1.63-1.4a4,4,0,0,0-3.61-.83,2.55,2.55,0,0,0-.53.18L2.46,23A4,4,0,0,0,0,26.37c0,.1,0,.2,0,.3V69.33c0,.1,0,.2,0,.3A4,4,0,0,0,2.46,73l7.27,3a2.55,2.55,0,0,0,.53.18,4,4,0,0,0,3.61-.83L15.5,74,34.12,58.74,66,94A6,6,0,0,0,68.89,95.6ZM72,27.68,47.21,48,72,68.32ZM12,34.27,24.41,48,12,61.73Z" style="fill: rgb(255, 255, 255); fill-rule: evenodd;"></path>
      </g>
    </mask>
    <linearGradient id="b" x1="48" y1="97.75" x2="48" y2="2.25" gradientTransform="matrix(1, 0, 0, -1, 0, 98)" gradientUnits="userSpaceOnUse">
      <stop offset="0" stop-color="#fff"></stop>
      <stop offset="1" stop-color="#fff" stop-opacity="0"></stop>
    </linearGradient>
  </defs>
  <g transform="matrix(0.030172, 0, 0, 0.033659, 22.493244, 23.030931)" style="">
    <title>computer</title>
    <path d="M 635.585 552.832 L 495.715 552.832 C 455.883 552.832 423.59 520.587 423.59 480.755 C 423.59 440.928 455.883 408.679 495.715 408.679 L 543.793 408.679 C 583.621 408.679 615.914 376.434 615.914 336.602 C 615.914 296.77 583.621 264.525 543.793 264.525 L 255.313 264.525 C 215.482 264.525 183.19 232.28 183.19 192.448 C 183.19 152.617 215.482 120.371 255.313 120.371 L 740.493 120.371 C 780.32 120.371 812.612 88.126 812.612 48.294 C 812.612 8.462 780.32 -23.783 740.493 -23.783 L 395.183 -23.783 C 355.355 -23.783 323.066 -56.033 323.066 -95.86 C 323.066 -135.692 355.355 -167.937 395.183 -167.937 L 526.313 -167.937 C 566.145 -167.937 598.433 -200.183 598.433 -240.014 C 598.433 -279.846 566.145 -312.091 526.313 -312.091 L 237.833 -312.091 C 198.006 -312.091 165.713 -344.337 165.713 -384.169 C 165.713 -424.001 198.006 -456.246 237.833 -456.246 L 281.541 -456.246 C 321.372 -456.246 353.664 -488.491 353.664 -528.323 C 353.664 -568.151 321.372 -600.4 281.541 -600.4 L -155.559 -600.4 C -195.387 -600.4 -227.679 -568.151 -227.679 -528.323 C -227.679 -488.491 -195.387 -456.246 -155.559 -456.246 L -129.332 -456.246 C -89.5 -456.246 -57.211 -424 -57.211 -384.169 C -57.211 -344.338 -89.5 -312.091 -129.332 -312.091 L -177.415 -312.091 C -217.243 -312.091 -249.535 -279.846 -249.535 -240.014 C -249.535 -200.183 -217.243 -167.937 -177.415 -167.937 L -186.155 -167.937 C -146.327 -167.937 -114.035 -135.691 -114.035 -95.86 C -114.035 -56.032 -146.327 -23.783 -186.155 -23.783 L -662.595 -23.783 C -702.427 -23.783 -734.719 8.462 -734.719 48.294 C -734.719 88.126 -702.427 120.371 -662.595 120.371 L -540.215 120.371 C -500.387 120.371 -468.095 152.617 -468.095 192.448 C -468.095 232.28 -500.387 264.525 -540.215 264.525 L -557.698 264.525 C -597.53 264.525 -629.822 296.77 -629.822 336.602 C -629.822 376.434 -597.53 408.679 -557.698 408.679 L -229.878 408.679 C -190.05 408.679 -157.758 440.928 -157.758 480.755 C -157.758 520.587 -190.05 552.832 -229.878 552.832 L -395.978 552.832 C -435.81 552.832 -468.102 585.078 -468.102 624.91 C -468.102 664.741 -435.81 696.986 -395.978 696.986 L 635.522 696.986 C 675.353 696.986 707.646 664.741 707.646 624.91 C 707.647 585.078 675.354 552.832 635.523 552.832 Z" fill="#A7CFE8"></path>
    <polygon points="-519.365 -25.478 -646.595 128.732 -634.585 138.132 -507.725 -14.878" fill="#9DB6C9"></polygon>
    <path d="M -634.595 142.132 C -635.455 142.132 -636.319 141.855 -637.051 141.287 L -649.064 131.945 C -649.916 131.28 -650.464 130.299 -650.585 129.223 C -650.702 128.148 -650.381 127.072 -649.693 126.235 L -522.453 -27.995 C -521.756 -28.84 -520.74 -29.36 -519.649 -29.438 C -518.558 -29.516 -517.479 -29.141 -516.669 -28.406 L -505.032 -17.808 C -503.448 -16.37 -503.281 -13.937 -504.645 -12.29 L -631.505 140.68 C -632.294 141.629 -633.436 142.126 -634.59 142.126 Z M -640.89 128.156 L -635.196 132.583 L -513.246 -14.457 L -518.947 -19.65 L -640.887 128.16 Z" fill="#305D8A"></path>
    <polygon points="-643.845 182.132 -568.515 328.632 -552.495 328.632 -631.075 175.132" fill="#9DB6C9"></polygon>
    <path d="M -552.495 332.632 L -568.512 332.632 C -570.013 332.632 -571.386 331.794 -572.075 330.457 L -647.406 183.967 C -648.395 182.039 -647.672 179.669 -645.771 178.625 L -633.003 171.617 C -632.049 171.101 -630.942 170.984 -629.898 171.301 C -628.866 171.617 -628.006 172.341 -627.509 173.303 L -548.929 326.803 C -548.295 328.046 -548.35 329.529 -549.078 330.717 C -549.804 331.906 -551.099 332.634 -552.495 332.634 Z M -566.068 324.623 L -559.045 324.623 L -632.761 180.623 L -638.501 183.77 L -566.068 324.63 Z" fill="#305D8A"></path>
    <path d="M -517.945 -144.148 C -509.35 -135.545 -509.35 -121.601 -517.945 -113.002 C -526.549 -104.403 -540.493 -104.403 -549.095 -113.002 C -557.691 -121.601 -557.691 -135.545 -549.095 -144.148 C -540.493 -152.747 -526.549 -152.747 -517.945 -144.148 Z" fill="#9DB6C9"></path>
    <path d="M -533.525 -102.548 C -540.478 -102.548 -547.016 -105.254 -551.932 -110.17 C -562.076 -120.317 -562.076 -136.827 -551.932 -146.979 C -547.016 -151.895 -540.478 -154.601 -533.525 -154.601 C -526.572 -154.601 -520.034 -151.895 -515.119 -146.979 C -504.975 -136.828 -504.975 -120.318 -515.119 -110.17 C -520.035 -105.254 -526.573 -102.548 -533.525 -102.548 Z M -533.525 -146.591 C -538.339 -146.591 -542.863 -144.718 -546.27 -141.316 C -553.289 -134.289 -553.289 -122.855 -546.27 -115.832 C -542.864 -112.43 -538.339 -110.557 -533.525 -110.557 C -528.712 -110.557 -524.187 -112.431 -520.781 -115.832 C -513.761 -122.855 -513.761 -134.289 -520.781 -141.316 C -524.187 -144.718 -528.712 -146.591 -533.525 -146.591 Z" fill="#305D8A"></path>
    <path d="M -395.735 -45.508 C -380.625 -30.394 -380.625 -5.891 -395.735 9.222 C -410.845 24.328 -435.352 24.332 -450.465 9.222 C -465.575 -5.892 -465.571 -30.399 -450.465 -45.508 C -435.351 -60.618 -410.845 -60.618 -395.735 -45.508 Z" fill="#fff"></path>
    <path d="M -423.095 24.552 C -434.502 24.552 -445.228 20.11 -453.291 12.047 C -469.938 -4.604 -469.938 -31.695 -453.291 -48.346 C -445.224 -56.409 -434.502 -60.851 -423.095 -60.851 C -411.684 -60.851 -400.962 -56.409 -392.899 -48.346 C -376.252 -31.695 -376.252 -4.604 -392.899 12.047 C -400.962 20.11 -411.688 24.552 -423.095 24.552 Z M -423.095 -52.843 C -432.363 -52.843 -441.075 -49.234 -447.629 -42.684 C -461.151 -29.158 -461.151 -7.142 -447.629 6.384 C -441.075 12.934 -432.363 16.544 -423.095 16.544 C -413.827 16.544 -405.115 12.935 -398.561 6.384 C -385.039 -7.142 -385.039 -29.158 -398.561 -42.684 C -405.111 -49.234 -413.823 -52.843 -423.095 -52.843 Z" fill="#305D8A"></path>
    <rect transform="matrix(0.707107, -0.707107, 0.707107, 0.707107, -1418.10498, -404.727722)" x="390.206" y="814.742" width="80.085" height="28.027" fill="#9DB6C9"></rect>
    <path d="M -546.265 -80.678 C -547.289 -80.678 -548.314 -81.069 -549.096 -81.851 L -568.914 -101.669 C -570.478 -103.233 -570.478 -105.767 -568.914 -107.331 L -512.283 -163.962 C -511.532 -164.712 -510.515 -165.135 -509.452 -165.135 C -508.388 -165.135 -507.372 -164.712 -506.621 -163.962 L -486.803 -144.14 C -485.239 -142.576 -485.239 -140.042 -486.803 -138.478 L -543.434 -81.851 C -544.216 -81.069 -545.24 -80.678 -546.265 -80.678 Z M -560.421 -104.5 L -546.265 -90.344 L -495.296 -141.309 L -509.452 -155.469 L -560.421 -104.5 Z" fill="#305D8A"></path>
    <polygon points="-359.385 -56.368 -461.325 45.562 -566.085 -81.858 -486.805 -161.138" fill="#9DB6C9"></polygon>
    <path d="M -461.325 48.332 L -461.52 48.332 C -462.646 48.332 -463.698 48.364 -464.417 47.488 L -569.177 -79.622 C -570.488 -81.213 -570.374 -83.38 -568.915 -84.838 L -489.635 -164.044 C -488.173 -165.499 -485.842 -165.573 -484.262 -164.267 L -356.842 -59.487 C -355.97 -58.768 -355.438 -57.708 -355.383 -56.582 C -355.329 -55.448 -355.755 -54.345 -356.552 -53.547 L -458.482 47.773 C -459.233 48.528 -460.254 48.332 -461.314 48.332 Z M -560.688 -81.588 L -461.035 39.612 L -365.343 -56.08 L -486.543 -155.733 L -560.684 -81.592 Z" fill="#305D8A"></path>
    <g opacity=".2" transform="matrix(1, 0, 0, 1, -958.115051, -951.667725)">
      <polygon points="544.93 943.43 592.6 895.77 471.58 795.94 434.5 833" fill="#9DB6C9"></polygon>
    </g>
    <g opacity=".2" transform="matrix(1, 0, 0, 1, -958.115051, -951.667725)">
      <rect transform="matrix(.7071 -.7071 .7071 .7071 -445.5 548.01)" x="420.73" y="807.77" width="36.04" height="8.008" fill="#9DB6C9"></rect>
    </g>
    <g opacity=".2" transform="matrix(1, 0, 0, 1, -958.115051, -951.667725)">
      <path d="m427.9 805.64s-11.571-3.136-19.591 8.932c0 0 6.14-1.146 9.209 1.45l10.382-10.382z" fill="#9DB6C9"></path>
    </g>
    <g opacity=".2" transform="matrix(1, 0, 0, 1, -958.115051, -951.667725)">
      <polyline points="530.41 968.8 536.44 968.92 567.58 937.77 570.41 934.94 570.17 929.52 530.77 968.92" fill="#9DB6C9"></polyline>
    </g>
    <path d="M -615.695 153.632 C -615.695 169.353 -628.439 182.093 -644.159 182.093 C -659.879 182.093 -672.623 169.353 -672.623 153.632 C -672.623 137.908 -659.879 125.164 -644.159 125.164 C -628.439 125.164 -615.695 137.908 -615.695 153.632 Z" fill="#9DB6C9"></path>
    <path d="M -644.165 186.132 C -662.067 186.132 -676.633 171.569 -676.633 153.667 C -676.633 135.762 -662.067 121.195 -644.165 121.195 C -626.263 121.195 -611.697 135.761 -611.697 153.667 C -611.697 171.569 -626.263 186.132 -644.165 186.132 Z M -644.165 129.204 C -657.652 129.204 -668.624 140.176 -668.624 153.667 C -668.624 167.151 -657.651 178.123 -644.165 178.123 C -630.679 178.123 -619.705 167.151 -619.705 153.667 C -619.705 140.175 -630.678 129.204 -644.165 129.204 Z" fill="#305D8A"></path>
    <g opacity=".2" transform="matrix(1, 0, 0, 1, -958.115051, -951.667725)">
      <path d="m313.52 1080.9v48.919c12.013 0 24.459-10.949 24.459-24.456 1e-3 -13.514-12.446-24.463-24.459-24.463z" fill="#9DB6C9"></path>
    </g>
    <path d="M -631.075 153.632 C -631.075 160.855 -636.933 166.713 -644.159 166.713 C -651.385 166.713 -657.243 160.855 -657.243 153.632 C -657.243 146.403 -651.385 140.544 -644.159 140.544 C -636.933 140.544 -631.075 146.402 -631.075 153.632 Z" fill="#9DB6C9"></path>
    <path d="M -644.165 170.732 C -653.589 170.732 -661.253 163.068 -661.253 153.647 C -661.253 144.223 -653.588 136.555 -644.165 136.555 C -634.741 136.555 -627.076 144.223 -627.076 153.647 C -627.076 163.068 -634.741 170.732 -644.165 170.732 Z M -644.165 144.564 C -649.17 144.564 -653.245 148.638 -653.245 153.647 C -653.245 158.653 -649.17 162.724 -644.165 162.724 C -639.16 162.724 -635.085 158.653 -635.085 153.647 C -635.085 148.638 -639.16 144.564 -644.165 144.564 Z" fill="#305D8A"></path>
    <path d="M -473.925 412.732 C -472.955 407.786 -472.416 402.682 -472.416 397.451 C -472.416 353.92 -507.704 318.632 -551.235 318.632 C -594.766 318.632 -630.057 353.92 -630.057 397.451 C -630.057 402.682 -629.521 407.786 -628.548 412.732 L -473.928 412.732 Z" fill="#9DB6C9"></path>
    <path d="M -473.925 416.732 L -628.545 416.732 C -630.457 416.732 -632.103 415.378 -632.475 413.502 C -633.527 408.16 -634.059 402.757 -634.059 397.446 C -634.059 351.775 -596.902 314.623 -551.232 314.623 C -505.562 314.623 -468.409 351.775 -468.409 397.446 C -468.409 402.736 -468.941 408.136 -469.992 413.498 C -470.36 415.374 -472.006 416.732 -473.923 416.732 Z M -625.185 408.723 L -477.295 408.723 C -476.716 404.941 -476.423 401.16 -476.423 397.446 C -476.423 356.195 -509.986 322.632 -551.238 322.632 C -592.493 322.632 -626.056 356.195 -626.056 397.446 C -626.056 401.172 -625.763 404.953 -625.188 408.723 Z" fill="#305D8A"></path>
    <g opacity=".2" transform="matrix(1, 0, 0, 1, -958.115051, -951.667725)">
      <path d="m406.88 1270.3c-13.292 0-25.793 3.324-36.781 9.131 4.161-0.677 8.404-1.123 12.756-1.123 43.531 0 78.818 35.288 78.818 78.819 0 2.456-0.14 4.876-0.367 7.273h22.884c0.97-4.946 1.509-10.05 1.509-15.281 0-43.531-35.288-78.819-78.819-78.819z" fill="#9DB6C9"></path>
    </g>
    <g opacity=".2" transform="matrix(1, 0, 0, 1, -958.115051, -951.667725)">
      <polygon points="440.99 935.27 325.75 1075.1 329.21 1076.9 443.49 938.61" fill="#9DB6C9"></polygon>
    </g>
    <g opacity=".2" transform="matrix(1, 0, 0, 1, -958.115051, -951.667725)">
      <polygon points="326.87 1135.1 323.7 1136.5 391.44 1268.3 395.11 1268.3" fill="#9DB6C9"></polygon>
    </g>
    <path d="M 626.585 -8.838 C 619.5 5.165 603.858 11.512 591.646 5.329 C 579.443 -0.845 575.286 -17.211 582.375 -31.214 C 589.461 -45.221 605.104 -51.564 617.311 -45.385 C 629.522 -39.206 633.672 -22.846 626.585 -8.838 Z" fill="#AFDDB5"></path>
    <path d="M 601.585 11.692 C 597.416 11.692 593.443 10.754 589.771 8.896 C 582.823 5.376 577.873 -0.986 575.832 -9.029 C 573.841 -16.87 574.873 -25.394 578.736 -33.031 C 584.493 -44.406 595.684 -51.762 607.248 -51.762 C 611.416 -51.762 615.39 -50.82 619.054 -48.966 C 633.213 -41.802 638.168 -22.993 630.096 -7.039 C 624.336 4.341 613.148 11.692 601.585 11.692 Z M 607.247 -43.754 C 598.676 -43.754 590.291 -38.123 585.884 -29.415 C 582.893 -23.506 582.079 -16.964 583.593 -11 C 585.056 -5.236 588.535 -0.708 593.389 1.748 C 595.927 3.035 598.684 3.684 601.585 3.684 C 610.156 3.684 618.54 -1.943 622.947 -10.651 C 629.028 -22.668 625.657 -36.648 615.438 -41.817 C 612.902 -43.101 610.145 -43.754 607.247 -43.754 Z" fill="#305D8A"></path>
    <g opacity=".38" transform="matrix(1, 0, 0, 1, -958.115051, -951.667725)">
      <path d="m1575.4 906.28c-0.499-0.254-1.016-0.454-1.524-0.665 3.223 7.418 3.074 16.732-1.212 25.199-6.796 13.429-21.448 19.783-33.411 14.833 2.111 4.856 5.655 8.908 10.483 11.348 12.213 6.183 27.854-0.164 34.939-14.167 7.088-14.009 2.938-30.369-9.275-36.548z" fill="#9DB6C9"></path>
    </g>
    <path d="M 604.685 3.162 C 620.897 34.054 612.31 70.496 585.508 84.561 C 558.697 98.626 523.832 84.983 507.624 54.091 C 491.411 23.202 499.994 -13.239 526.801 -27.309 C 553.607 -41.374 588.473 -27.73 604.685 3.162 Z" fill="#AFDDB5"></path>
    <path d="M 562.885 94.132 C 539.38 94.132 516.331 79.154 504.17 55.977 C 495.88 40.184 493.432 22.504 497.276 6.19 C 501.167 -10.328 511.024 -23.478 525.032 -30.83 C 532.618 -34.811 540.885 -36.829 549.604 -36.829 C 573.11 -36.829 596.159 -21.852 608.324 1.325 C 616.61 17.119 619.062 34.803 615.218 51.113 C 611.323 67.634 601.469 80.782 587.462 88.134 C 579.876 92.114 571.606 94.132 562.885 94.132 Z M 549.605 -28.818 C 542.196 -28.818 535.18 -27.106 528.755 -23.735 C 516.832 -17.478 508.42 -6.196 505.069 8.03 C 501.671 22.464 503.868 38.172 511.263 52.257 C 522.056 72.83 542.32 86.125 562.884 86.125 C 570.294 86.125 577.314 84.413 583.738 81.042 C 595.657 74.789 604.069 63.507 607.42 49.281 C 610.822 34.844 608.625 19.135 601.23 5.051 C 590.434 -15.522 570.17 -28.818 549.605 -28.818 Z" fill="#305D8A"></path>
    <g opacity=".38" transform="matrix(1, 0, 0, 1, -958.115051, -951.667725)">
      <path d="m1562.8 954.83c-16.212-30.893-51.078-44.536-77.884-30.47-1.014 0.532-1.943 1.153-2.906 1.748 22.748 1.999 44.153 19.529 52.447 45.564 8.725 27.389 0.188 55.517-19.208 69.727 9.698 1.057 19.478-0.5 28.374-5.169 26.802-14.066 35.389-50.508 19.177-81.4z" fill="#9DB6C9"></path>
    </g>
    <ellipse transform="matrix(0.94786, 0.318687, -0.318687, 0.94786, -526.071343, -1361.563397)" cx="1468.8" cy="1115.1" rx="34.037" ry="23.025" fill="#AFDDB5"></ellipse>
    <path d="M 518.385 191.832 C 512.966 191.832 507.455 190.9 502.009 189.07 C 481.787 182.27 469.733 165.693 474.561 151.327 C 477.933 141.297 488.776 135.067 502.854 135.067 C 508.273 135.067 513.784 135.998 519.231 137.828 C 539.452 144.629 551.506 161.205 546.678 175.572 C 543.306 185.601 532.463 191.832 518.385 191.832 Z M 502.853 143.076 C 492.482 143.076 484.36 147.314 482.155 153.877 C 478.866 163.652 489.127 176.291 504.557 181.477 C 509.183 183.034 513.832 183.823 518.384 183.823 C 528.755 183.823 536.877 179.585 539.082 173.023 C 542.371 163.247 532.109 150.608 516.68 145.422 C 512.055 143.866 507.405 143.076 502.853 143.076 Z" fill="#305D8A"></path>
    <g opacity=".38" transform="matrix(1, 0, 0, 1, -958.115051, -951.667725)">
      <path d="m1476.1 1093.3c-17.816-5.99-35.546-1.075-39.597 10.977-0.544 1.619-0.794 3.289-0.81 4.975 7.637-3.188 17.992-3.434 28.393 0.066 15.424 5.186 25.838 16.842 25.735 27.697 5.443-2.272 9.519-6.029 11.203-11.043 4.052-12.052-7.105-26.682-24.924-32.672z" fill="#9DB6C9"></path>
    </g>
    <path d="M 726.485 63.332 C 734.634 75.693 726.43 95.488 708.153 107.544 C 689.88 119.6 668.45 119.346 660.298 106.984 C 652.149 94.624 660.353 74.826 678.626 62.773 C 696.907 50.717 718.328 50.967 726.485 63.332 Z" fill="#AFDDB5"></path>
    <path d="M 680.885 120.432 C 670.248 120.432 661.759 116.439 656.976 109.194 C 647.622 95.003 656.355 72.682 676.442 59.434 C 685.773 53.283 696.249 49.892 705.943 49.892 C 716.58 49.892 725.069 53.885 729.851 61.13 C 739.205 75.318 730.469 97.638 710.38 110.89 C 701.054 117.042 690.578 120.432 680.885 120.432 Z M 705.942 57.901 C 697.8 57.901 688.888 60.818 680.852 66.121 C 664.726 76.754 656.854 94.46 663.663 104.783 C 666.912 109.711 673.028 112.424 680.885 112.424 C 689.03 112.424 697.938 109.503 705.97 104.204 C 722.097 93.567 729.968 75.861 723.164 65.542 C 719.914 60.614 713.798 57.901 705.942 57.901 Z" fill="#305D8A"></path>
    <g opacity=".38" transform="matrix(1, 0, 0, 1, -958.115051, -951.667725)">
      <path d="m1684.6 1015c-1.857-2.815-4.427-4.97-7.469-6.526 4.356 13.93-8.481 30.725-28.983 37.717-11.982 4.087-23.933 3.902-32.817 0.324-0.21 4.419 0.743 8.587 3.082 12.138 8.152 12.361 29.582 12.615 47.855 0.56 18.277-12.057 26.481-31.852 18.332-44.213z" fill="#9DB6C9"></path>
    </g>
    <ellipse cx="604.785" cy="153.432" rx="88.094" ry="107.11" fill="#AFDDB5"></ellipse>
    <path d="M 604.785 264.532 C 554 264.532 512.686 214.685 512.686 153.412 C 512.686 92.139 553.999 42.292 604.785 42.292 C 655.571 42.292 696.884 92.138 696.884 153.412 C 696.884 214.686 655.57 264.532 604.785 264.532 Z M 604.785 50.302 C 558.419 50.302 520.695 96.559 520.695 153.412 C 520.695 210.266 558.419 256.522 604.785 256.522 C 651.151 256.522 688.875 210.266 688.875 153.412 C 688.874 96.559 651.151 50.302 604.785 50.302 Z" fill="#305D8A"></path>
    <g opacity=".38" transform="matrix(1, 0, 0, 1, -958.115051, -951.667725)">
      <path d="m1562.9 998c-6.179 0-12.2 0.782-18.019 2.252 40.011 10.113 70.074 53.213 70.074 104.86s-30.063 94.75-70.074 104.86c5.818 1.471 11.84 2.252 18.019 2.252 48.654 0 88.094-47.957 88.094-107.11s-39.44-107.11-88.094-107.11z" fill="#9DB6C9"></path>
    </g>
    <path d="M 708.885 390.032 C 708.885 402.569 698.718 412.732 686.181 412.732 L 527.371 412.732 C 514.835 412.732 504.667 402.569 504.667 390.032 L 484.646 243.222 C 484.646 230.686 494.814 220.523 507.35 220.523 L 706.2 220.523 C 718.737 220.523 728.904 230.686 728.904 243.222 L 708.882 390.032 Z" fill="#E4C6AA"></path>
    <path d="M 686.185 416.732 L 527.375 416.732 C 512.742 416.732 500.819 404.907 500.667 390.309 L 480.681 243.759 C 480.658 243.583 480.646 243.4 480.646 243.219 C 480.646 228.492 492.627 216.515 507.354 216.515 L 706.204 216.515 C 720.931 216.515 732.912 228.493 732.912 243.219 C 732.912 243.4 732.9 243.583 732.877 243.759 L 712.892 390.309 C 712.738 404.906 700.815 416.732 686.182 416.732 Z M 488.655 242.962 L 508.641 389.482 C 508.664 389.658 508.676 389.841 508.676 390.021 C 508.676 400.33 517.064 408.717 527.375 408.717 L 686.185 408.717 C 696.498 408.717 704.885 400.329 704.885 390.021 C 704.885 389.841 704.896 389.658 704.92 389.482 L 724.906 242.962 C 724.765 232.771 716.431 224.524 706.206 224.524 L 507.356 224.524 C 497.131 224.523 488.798 232.771 488.658 242.962 Z" fill="#305D8A"></path>
    <g opacity=".38" transform="matrix(1, 0, 0, 1, -958.115051, -951.667725)">
      <path d="m1664.3 1172.2h-20.021c12.537 0 22.704 10.163 22.704 22.699l-20.021 146.81c0 12.537-10.167 22.7-22.704 22.7h20.021c12.537 0 22.704-10.163 22.704-22.7l20.021-146.81c0-12.536-10.167-22.699-22.704-22.699z" fill="#AA9E80"></path>
    </g>
    <path d="M 440.585 358.032 C 440.585 370.569 430.418 380.732 417.881 380.732 L -317.549 380.732 C -330.086 380.732 -340.253 370.569 -340.253 358.032 L -340.253 -137.148 C -340.253 -149.685 -330.086 -159.848 -317.549 -159.848 L 417.881 -159.848 C 430.418 -159.848 440.585 -149.685 440.585 -137.148 L 440.585 358.032 Z" fill="#fff"></path>
    <path d="M 417.885 384.732 L -317.545 384.732 C -332.272 384.732 -344.253 372.753 -344.253 358.027 L -344.253 -137.153 C -344.253 -151.88 -332.272 -163.858 -317.545 -163.858 L 417.885 -163.858 C 432.612 -163.858 444.594 -151.88 444.594 -137.153 L 444.594 358.027 C 444.595 372.753 432.612 384.731 417.886 384.731 Z M -317.545 -155.848 C -327.857 -155.848 -336.245 -147.46 -336.245 -137.152 L -336.245 358.028 C -336.245 368.336 -327.857 376.724 -317.545 376.724 L 417.885 376.724 C 428.197 376.724 436.585 368.335 436.585 358.028 L 436.585 -137.152 C 436.585 -147.46 428.196 -155.848 417.885 -155.848 L -317.545 -155.848 Z" fill="#305D8A"></path>
    <g opacity=".2" transform="matrix(1, 0, 0, 1, -958.115051, -951.667725)">
      <path d="m1372 791.78h-7.328c9.952 0 18.02 8.067 18.02 18.019v490.52h12.013v-485.84c-1e-3 -12.538-10.168-22.7-22.705-22.7z" fill="#9DB6C9"></path>
    </g>
    <g opacity=".2" transform="matrix(1, 0, 0, 1, -958.115051, -951.667725)">
      <path d="m1350.6 1189.5c0 12.537-10.167 22.699-22.704 22.699h-639.32c-12.537 0-22.704-10.162-22.704-22.699v-343.02c0-12.537 10.167-22.7 22.704-22.7h639.32c12.537 0 22.704 10.164 22.704 22.7v343.02z" fill="#9DB6C9"></path>
    </g>
    <path d="M 392.485 349.932 C 392.485 362.468 382.318 372.632 369.781 372.632 L -269.539 372.632 C -282.076 372.632 -292.243 362.468 -292.243 349.932 L -292.243 -93.188 C -292.243 -105.725 -282.076 -115.888 -269.539 -115.888 L 369.781 -115.888 C 382.318 -115.888 392.485 -105.725 392.485 -93.188 L 392.485 349.932 Z" fill="#EFEFEF"></path>
    <path d="M 369.785 376.732 L -269.535 376.732 C -284.262 376.732 -296.243 364.754 -296.243 350.028 L -296.243 -93.092 C -296.243 -107.819 -284.262 -119.796 -269.535 -119.796 L 369.785 -119.796 C 384.512 -119.796 396.493 -107.818 396.493 -93.092 L 396.493 350.028 C 396.493 364.755 384.511 376.733 369.785 376.733 Z M -269.535 -111.788 C -279.847 -111.788 -288.234 -103.4 -288.234 -93.093 L -288.234 350.027 C -288.234 360.335 -279.846 368.722 -269.535 368.722 L 369.785 368.722 C 380.097 368.722 388.484 360.334 388.484 350.027 L 388.484 -93.093 C 388.484 -103.401 380.096 -111.788 369.785 -111.788 L -269.535 -111.788 Z" fill="#305D8A"></path>
    <g opacity=".41" transform="matrix(1, 0, 0, 1, -958.115051, -951.667725)">
      <path d="m1326.9 839.83h-432.27l451.98 316.34v-293.64c0-17.022-8.591-22.7-19.709-22.7z" fill="#fff"></path>
    </g>
    <path d="M 575.485 352.632 L -471.215 352.632 C -483.752 352.632 -489.504 363.323 -485.91 375.332 C -484.714 379.337 -482.265 388.632 -481.233 392.679 C -478.132 404.825 -467.734 412.697 -455.197 412.697 L 559.503 412.697 C 572.04 412.697 582.438 404.825 585.539 392.679 C 586.571 388.632 589.019 379.337 590.216 375.332 C 593.809 363.324 588.057 352.632 575.52 352.632 Z" fill="#fff"></path>
    <path d="M 559.485 416.732 L -455.215 416.732 C -469.59 416.732 -481.614 407.476 -485.13 393.699 C -486.123 389.812 -488.579 380.473 -489.764 376.509 C -492.06 368.849 -491.097 361.392 -487.125 356.062 C -483.57 351.288 -477.927 348.66 -471.233 348.66 L 575.467 348.66 C 582.161 348.66 587.804 351.288 591.359 356.062 C 595.333 361.392 596.295 368.849 593.999 376.513 C 592.814 380.474 590.358 389.813 589.365 393.7 C 585.851 407.476 573.827 416.732 559.451 416.732 Z M -471.215 356.667 C -475.376 356.667 -478.649 358.11 -480.686 360.844 C -483.13 364.124 -483.634 369 -482.074 374.213 C -480.842 378.342 -478.39 387.653 -477.354 391.72 C -474.714 402.047 -466.017 408.723 -455.197 408.723 L 559.503 408.723 C 570.324 408.723 579.021 402.047 581.66 391.72 C 582.696 387.654 585.148 378.342 586.38 374.217 C 587.941 369 587.436 364.124 584.992 360.844 C 582.954 358.111 579.681 356.667 575.52 356.667 L -471.18 356.667 Z" fill="#305D8A"></path>
    <g opacity=".2" transform="matrix(1, 0, 0, 1, -958.115051, -951.667725)">
      <path d="m1076.9 1304.3h-178.72v13.339c0 12.537 10.167 22.7 22.704 22.7h174.83c12.536 0 22.703-10.163 22.703-22.7v-13.339h-41.517z" fill="#9DB6C9"></path>
    </g>
    <path d="M 118.785 352.632 L -55.755 352.632 C -54.426 363.903 -44.853 372.654 -33.223 372.654 L 133.597 372.654 C 145.227 372.654 154.799 363.902 156.129 352.632 L 118.787 352.632 Z" fill="#9DB6C9"></path>
    <path d="M 133.585 376.732 L -33.235 376.732 C -46.761 376.732 -58.16 366.603 -59.744 353.175 C -59.877 352.04 -59.521 350.899 -58.759 350.046 C -58 349.191 -56.909 348.701 -55.767 348.701 L 156.113 348.701 C 157.255 348.701 158.345 349.19 159.104 350.046 C 159.867 350.899 160.223 352.04 160.089 353.175 C 158.506 366.603 147.107 376.732 133.581 376.732 Z M -50.695 356.71 C -47.993 363.795 -41.134 368.723 -33.239 368.723 L 133.581 368.723 C 141.477 368.723 148.335 363.795 151.038 356.71 L -50.692 356.71 Z" fill="#305D8A"></path>
    <g opacity=".2" transform="matrix(1, 0, 0, 1, -958.115051, -951.667725)">
      <path d="m480.37 1348.4c4.802 7.478 13.057 12.014 22.559 12.014h1014.7c9.503 0 17.758-4.536 22.56-12.014h-1059.8z" fill="#9DB6C9"></path>
    </g>
    <g opacity=".33" transform="matrix(1, 0, 0, 1, -958.115051, -951.667725)">
      <path d="m1327.9 835.82h-639.32c-12.537 0-22.704 10.163-22.704 22.7v12.013c0-12.537 10.167-22.7 22.704-22.7h639.32c12.537 0 22.704 10.164 22.704 22.7v-12.013c0-12.537-10.167-22.7-22.704-22.7z" fill="#9DB6C9"></path>
    </g>
    <g opacity=".2" transform="matrix(1, 0, 0, 1, -958.115051, -951.667725)">
      <rect x="617.84" y="1292.3" width="764.82" height="8.009" fill="#9DB6C9"></rect>
    </g>
    <circle cx="52.185" cy="-139.368" r="4.505" fill="#305D8A"></circle>
    <g opacity=".2" transform="matrix(1, 0, 0, 1, -958.115051, -951.667725)">
      <path d="m1366.6 791.98c0.665-0.078 1.314-0.203 2.002-0.203h-2.002v0.203z" fill="#9DB6C9"></path>
    </g>
    <path d="M 812.985 416.732 L 792.964 416.732 C 790.751 416.732 788.959 414.94 788.959 412.727 C 788.959 410.514 790.751 408.723 792.964 408.723 L 812.985 408.723 C 815.199 408.723 816.99 410.514 816.99 412.727 C 816.99 414.94 815.199 416.732 812.985 416.732 Z M 760.93 416.732 L 728.896 416.732 C 726.682 416.732 724.892 414.94 724.892 412.727 C 724.892 410.514 726.682 408.723 728.896 408.723 L 760.93 408.723 C 763.143 408.723 764.934 410.514 764.934 412.727 C 764.934 414.94 763.142 416.732 760.93 416.732 Z" fill="#305D8A"></path>
    <path d="M 728.885 416.732 L -580.515 416.732 C -582.728 416.732 -584.519 414.94 -584.519 412.727 C -584.519 410.514 -582.728 408.723 -580.515 408.723 L 728.885 408.723 C 731.099 408.723 732.889 410.514 732.889 412.727 C 732.889 414.94 731.099 416.732 728.885 416.732 Z" fill="#305D8A"></path>
    <path d="M -584.495 416.732 C -586.704 416.732 -588.519 414.94 -588.519 412.727 C -588.519 410.514 -586.748 408.723 -584.534 408.723 L -584.495 408.723 C -582.282 408.723 -580.491 410.514 -580.491 412.727 C -580.491 414.94 -582.282 416.732 -584.495 416.732 Z M -616.568 416.732 L -648.603 416.732 C -650.816 416.732 -652.607 414.94 -652.607 412.727 C -652.607 410.514 -650.816 408.723 -648.603 408.723 L -616.568 408.723 C -614.355 408.723 -612.564 410.514 -612.564 412.727 C -612.564 414.94 -614.355 416.732 -616.568 416.732 Z M -680.636 416.732 L -712.671 416.732 C -714.884 416.732 -716.675 414.94 -716.675 412.727 C -716.675 410.514 -714.884 408.723 -712.671 408.723 L -680.636 408.723 C -678.423 408.723 -676.632 410.514 -676.632 412.727 C -676.632 414.94 -678.424 416.732 -680.636 416.732 Z" fill="#305D8A"></path>
    <line x1="616.885" x2="638.785" y1="-16.028" y2="-5.728" fill="#fff"></line>
    <path d="M 638.785 -1.718 C 638.215 -1.718 637.632 -1.839 637.081 -2.101 L 615.236 -12.401 C 613.239 -13.343 612.382 -15.729 613.324 -17.731 C 614.259 -19.725 616.652 -20.597 618.654 -19.643 L 640.499 -9.343 C 642.496 -8.401 643.353 -6.015 642.41 -4.013 C 641.73 -2.567 640.287 -1.718 638.785 -1.718 Z" fill="#305D8A"></path>
    <line x1="604.485" x2="603.285" y1="-47.558" y2="-61.788" fill="#fff"></line>
    <path d="M 604.485 -43.548 C 602.423 -43.548 600.672 -45.128 600.501 -47.219 L 599.312 -61.449 C 599.124 -63.651 600.762 -65.586 602.968 -65.77 C 605.217 -66.032 607.106 -64.319 607.289 -62.114 L 608.477 -47.884 C 608.665 -45.683 607.027 -43.747 604.821 -43.563 C 604.708 -43.552 604.595 -43.548 604.485 -43.548 Z" fill="#305D8A"></path>
    <line x1="591.285" x2="572.685" y1="-32.848" y2="-43.548" fill="#fff"></line>
    <path d="M 591.285 -28.848 C 590.605 -28.848 589.92 -29.02 589.287 -29.384 L 570.74 -40.083 C 568.824 -41.19 568.167 -43.638 569.273 -45.554 C 570.376 -47.467 572.816 -48.123 574.744 -47.02 L 593.292 -36.321 C 595.207 -35.214 595.864 -32.767 594.758 -30.85 C 594.015 -29.567 592.67 -28.848 591.285 -28.848 Z" fill="#305D8A"></path>
    <line x1="629.985" x2="638.785" y1="-32.848" y2="-34.198" fill="#fff"></line>
    <path d="M 629.985 -28.848 C 628.041 -28.848 626.337 -30.264 626.032 -32.246 C 625.695 -34.432 627.196 -36.473 629.383 -36.809 L 638.142 -38.154 C 640.329 -38.494 642.366 -36.989 642.705 -34.802 C 643.042 -32.616 641.54 -30.575 639.354 -30.239 L 630.594 -28.894 C 630.391 -28.864 630.184 -28.848 629.985 -28.848 Z" fill="#305D8A"></path>
    <line x1="638.785" x2="652.285" y1="122.432" y2="106.932" fill="#fff"></line>
    <path d="M 638.785 126.432 C 637.847 126.432 636.904 126.104 636.146 125.439 C 634.484 123.98 634.315 121.45 635.774 119.789 L 649.32 104.334 C 650.778 102.668 653.316 102.512 654.97 103.963 C 656.632 105.421 656.8 107.952 655.341 109.614 L 641.796 125.067 C 641.005 125.97 639.896 126.432 638.785 126.432 Z" fill="#305D8A"></path>
    <line x1="706.885" x2="728.885" y1="90.132" y2="106.932" fill="#fff"></line>
    <path d="M 728.885 110.932 C 728.036 110.932 727.18 110.661 726.456 110.107 L 704.433 93.25 C 702.677 91.904 702.341 89.394 703.687 87.638 C 705.028 85.882 707.554 85.55 709.298 86.891 L 731.321 103.749 C 733.077 105.095 733.413 107.604 732.067 109.36 C 731.282 110.392 730.09 110.932 728.885 110.932 Z" fill="#305D8A"></path>
    <line x1="700.585" x2="702.885" y1="111.732" y2="118.432" fill="#fff"></line>
    <path d="M 702.885 122.432 C 701.223 122.432 699.67 121.389 699.099 119.731 L 696.812 113.075 C 696.092 110.983 697.203 108.704 699.295 107.987 C 701.391 107.264 703.666 108.383 704.382 110.47 L 706.67 117.126 C 707.389 119.218 706.278 121.497 704.187 122.213 C 703.756 122.363 703.315 122.432 702.885 122.432 Z" fill="#305D8A"></path>
    <line x1="681.085" x2="675.485" y1="69.832" y2="49.632" fill="#fff"></line>
    <path d="M 681.085 73.832 C 679.333 73.832 677.722 72.671 677.229 70.899 L 671.638 50.764 C 671.047 48.633 672.294 46.427 674.425 45.833 C 676.557 45.247 678.762 46.49 679.356 48.621 L 684.949 68.756 C 685.54 70.887 684.292 73.093 682.161 73.687 C 681.8 73.785 681.44 73.832 681.085 73.832 Z" fill="#305D8A"></path>
    <line x1="704.885" x2="708.885" y1="52.332" y2="44.332" fill="#fff"></line>
    <path d="M 704.885 56.332 C 704.283 56.332 703.673 56.195 703.099 55.91 C 701.12 54.921 700.319 52.515 701.308 50.536 L 705.312 42.528 C 706.301 40.549 708.71 39.751 710.686 40.737 C 712.665 41.726 713.465 44.132 712.476 46.11 L 708.471 54.118 C 707.768 55.522 706.356 56.332 704.885 56.332 Z" fill="#305D8A"></path>
    <line x1="720.885" x2="742.885" y1="69.832" y2="64.332" fill="#fff"></line>
    <path d="M 720.885 73.832 C 719.086 73.832 717.452 72.611 717.002 70.789 C 716.47 68.643 717.78 66.473 719.927 65.941 L 741.95 60.49 C 744.094 59.969 746.267 61.267 746.799 63.414 C 747.331 65.561 746.022 67.731 743.875 68.264 L 721.851 73.715 C 721.526 73.793 721.205 73.832 720.885 73.832 Z" fill="#305D8A"></path>
    <line x1="728.885" x2="736.185" y1="80.532" y2="81.132" fill="#fff"></line>
    <path d="M 736.185 85.132 C 736.072 85.132 735.954 85.128 735.837 85.116 L 728.497 84.487 C 726.295 84.299 724.66 82.359 724.852 80.154 C 725.04 77.957 726.956 76.235 729.184 76.509 L 736.525 77.138 C 738.726 77.326 740.36 79.266 740.17 81.471 C 739.99 83.557 738.242 85.132 736.185 85.132 Z" fill="#305D8A"></path>
    <line x1="540.685" x2="544.685" y1="-23.748" y2="-43.768" fill="#fff"></line>
    <path d="M 540.685 -19.738 C 540.422 -19.738 540.162 -19.761 539.895 -19.816 C 537.729 -20.25 536.321 -22.358 536.755 -24.528 L 540.759 -44.549 C 541.193 -46.719 543.289 -48.143 545.471 -47.689 C 547.637 -47.255 549.045 -45.147 548.612 -42.977 L 544.607 -22.955 C 544.228 -21.051 542.554 -19.738 540.685 -19.738 Z" fill="#305D8A"></path>
    <line x1="523.685" x2="513.985" y1="-25.478" y2="-32.848" fill="#fff"></line>
    <path d="M 523.685 -21.468 C 522.84 -21.468 521.991 -21.734 521.268 -22.285 L 511.558 -29.66 C 509.794 -30.997 509.45 -33.508 510.791 -35.268 C 512.125 -37.035 514.644 -37.372 516.398 -36.034 L 526.108 -28.659 C 527.872 -27.322 528.215 -24.811 526.875 -23.052 C 526.089 -22.012 524.893 -21.468 523.685 -21.468 Z" fill="#305D8A"></path>
    <line x1="523.685" x2="499.485" y1="58.332" y2="64.332" fill="#fff"></line>
    <path d="M 499.485 68.332 C 497.69 68.332 496.055 67.116 495.602 65.294 C 495.07 63.147 496.379 60.973 498.522 60.441 L 522.732 54.434 C 524.875 53.917 527.049 55.208 527.586 57.355 C 528.117 59.501 526.808 61.676 524.665 62.208 L 500.455 68.215 C 500.13 68.293 499.805 68.332 499.485 68.332 Z" fill="#305D8A"></path>
    <line x1="540.685" x2="523.685" y1="28.622" y2="22.972" fill="#fff"></line>
    <path d="M 540.685 32.632 C 540.267 32.632 539.84 32.566 539.422 32.428 L 522.435 26.774 C 520.334 26.074 519.202 23.806 519.897 21.71 C 520.593 19.61 522.866 18.488 524.961 19.172 L 541.947 24.827 C 544.048 25.527 545.181 27.795 544.486 29.891 C 543.926 31.572 542.363 32.632 540.685 32.632 Z" fill="#305D8A"></path>
    <line x1="556.185" x2="559.385" y1="0.942" y2="-16.028" fill="#fff"></line>
    <path d="M 556.185 4.952 C 555.943 4.952 555.697 4.932 555.45 4.885 C 553.276 4.482 551.841 2.39 552.243 0.216 L 555.395 -16.755 C 555.797 -18.929 557.89 -20.38 560.064 -19.962 C 562.239 -19.559 563.673 -17.467 563.27 -15.293 L 560.119 1.678 C 559.76 3.606 558.078 4.952 556.185 4.952 Z" fill="#305D8A"></path>
    <line x1="588.085" x2="600.685" y1="3.612" y2="-16.028" fill="#fff"></line>
    <path d="M 588.085 7.622 C 587.342 7.622 586.587 7.414 585.919 6.981 C 584.057 5.785 583.524 3.305 584.726 1.447 L 597.408 -18.195 C 598.608 -20.056 601.092 -20.589 602.941 -19.388 C 604.802 -18.192 605.335 -15.712 604.134 -13.855 L 591.452 5.788 C 590.686 6.977 589.4 7.622 588.085 7.622 Z" fill="#305D8A"></path>
    <line x1="598.085" x2="620.785" y1="22.972" y2="25.792" fill="#fff"></line>
    <path d="M 620.785 29.802 C 620.621 29.802 620.453 29.794 620.284 29.77 L 597.592 26.943 C 595.399 26.669 593.842 24.671 594.116 22.473 C 594.389 20.279 596.356 18.735 598.585 18.996 L 621.278 21.823 C 623.471 22.097 625.027 24.095 624.754 26.293 C 624.504 28.32 622.774 29.802 620.785 29.802 Z" fill="#305D8A"></path>
    <line x1="502.085" x2="480.585" y1="40.012" y2="34.312" fill="#fff"></line>
    <path d="M 502.085 44.022 C 501.745 44.022 501.397 43.98 501.054 43.89 L 479.589 38.192 C 477.454 37.625 476.179 35.431 476.746 33.293 C 477.312 31.158 479.515 29.887 481.645 30.45 L 503.11 36.148 C 505.245 36.715 506.52 38.909 505.953 41.047 C 505.475 42.837 503.857 44.022 502.085 44.022 Z" fill="#305D8A"></path>
    <line x1="491.285" x2="499.485" y1="12.962" y2="11.692" fill="#fff"></line>
    <path d="M 491.285 16.962 C 489.346 16.962 487.64 15.55 487.332 13.572 C 486.991 11.385 488.489 9.341 490.675 9 L 498.813 7.737 C 501.019 7.408 503.048 8.895 503.384 11.081 C 503.725 13.267 502.227 15.312 500.04 15.652 L 491.903 16.916 C 491.695 16.946 491.489 16.962 491.285 16.962 Z" fill="#305D8A"></path>
    <line x1="568.685" x2="572.685" y1="37.162" y2="25.792" fill="#fff"></line>
    <path d="M 568.685 41.172 C 568.243 41.172 567.793 41.098 567.355 40.945 C 565.267 40.21 564.172 37.923 564.908 35.838 L 568.912 24.47 C 569.646 22.382 571.942 21.299 574.019 22.022 C 576.106 22.757 577.202 25.045 576.466 27.129 L 572.461 38.497 C 571.884 40.144 570.335 41.172 568.685 41.172 Z" fill="#305D8A"></path>
    <line x1="516.685" x2="506.085" y1="-5.728" y2="-16.028" fill="#fff"></line>
    <path d="M 516.685 -1.718 C 515.676 -1.718 514.666 -2.097 513.888 -2.856 L 503.319 -13.156 C 501.735 -14.697 501.704 -17.235 503.249 -18.818 C 504.794 -20.402 507.331 -20.425 508.911 -18.888 L 519.481 -8.588 C 521.065 -7.047 521.095 -4.51 519.551 -2.926 C 518.769 -2.121 517.725 -1.718 516.685 -1.718 Z" fill="#305D8A"></path>
    <line x1="542.685" x2="549.385" y1="49.632" y2="52.332" fill="#fff"></line>
    <path d="M 549.385 56.332 C 548.888 56.332 548.384 56.242 547.895 56.047 L 541.223 53.376 C 539.17 52.551 538.173 50.22 538.994 48.167 C 539.819 46.114 542.153 45.121 544.202 45.938 L 550.874 48.609 C 552.927 49.434 553.925 51.764 553.103 53.817 C 552.474 55.382 550.972 56.332 549.385 56.332 Z" fill="#305D8A"></path>
    <line x1="506.085" x2="491.285" y1="147.732" y2="128.432" fill="#fff"></line>
    <path d="M 506.085 151.732 C 504.877 151.732 503.684 151.189 502.895 150.153 L 488.156 130.799 C 486.819 129.039 487.16 126.529 488.919 125.188 C 490.679 123.847 493.19 124.187 494.531 125.952 L 509.269 145.304 C 510.606 147.064 510.266 149.575 508.506 150.915 C 507.782 151.468 506.93 151.732 506.085 151.732 Z" fill="#305D8A"></path>
    <line x1="484.585" x2="477.585" y1="144.332" y2="138.132" fill="#fff"></line>
    <path d="M 484.585 148.332 C 483.64 148.332 482.689 148 481.926 147.323 L 474.864 141.057 C 473.21 139.591 473.061 137.062 474.528 135.404 C 475.994 133.75 478.532 133.6 480.181 135.067 L 487.244 141.332 C 488.898 142.798 489.047 145.328 487.581 146.986 C 486.791 147.878 485.688 148.332 484.585 148.332 Z" fill="#305D8A"></path>
    <line x1="491.285" x2="473.285" y1="163.432" y2="170.432" fill="#fff"></line>
    <path d="M 473.285 174.432 C 471.681 174.432 470.169 173.461 469.551 171.873 C 468.753 169.812 469.778 167.493 471.839 166.692 L 489.912 159.684 C 491.962 158.89 494.288 159.908 495.094 161.972 C 495.892 164.033 494.867 166.352 492.807 167.153 L 474.733 174.161 C 474.259 174.345 473.765 174.432 473.285 174.432 Z" fill="#305D8A"></path>
    <line x1="491.285" x2="484.585" y1="179.332" y2="187.832" fill="#fff"></line>
    <path d="M 484.585 191.832 C 483.714 191.832 482.837 191.55 482.103 190.963 C 480.371 189.591 480.078 187.072 481.454 185.34 L 488.181 176.862 C 489.553 175.13 492.072 174.833 493.804 176.213 C 495.536 177.586 495.828 180.104 494.452 181.836 L 487.726 190.315 C 486.935 191.311 485.766 191.832 484.585 191.832 Z" fill="#305D8A"></path>
    <line x1="506.085" x2="502.085" y1="172.432" y2="191.832" fill="#fff"></line>
    <path d="M 502.085 195.832 C 501.816 195.832 501.546 195.805 501.272 195.75 C 499.105 195.3 497.713 193.181 498.159 191.019 L 502.163 171.665 C 502.609 169.498 504.722 168.114 506.895 168.553 C 509.061 169.003 510.454 171.122 510.008 173.284 L 506.003 192.637 C 505.613 194.53 503.943 195.832 502.085 195.832 Z" fill="#305D8A"></path>
    <line x1="641.485" x2="649.485" y1="69.832" y2="46.332" fill="#fff"></line>
    <path d="M 641.485 73.832 C 641.055 73.832 640.621 73.766 640.191 73.617 C 638.099 72.901 636.98 70.629 637.696 68.534 L 645.705 45.063 C 646.416 42.971 648.696 41.845 650.789 42.568 C 652.881 43.283 653.999 45.555 653.284 47.651 L 645.274 71.121 C 644.707 72.784 643.151 73.832 641.485 73.832 Z" fill="#305D8A"></path>
    <line x1="626.585" x2="627.885" y1="49.632" y2="40.012" fill="#fff"></line>
    <path d="M 626.585 53.632 C 626.417 53.632 626.249 53.62 626.077 53.601 C 623.883 53.324 622.33 51.318 622.608 49.123 L 623.832 39.472 C 624.113 37.278 626.093 35.765 628.31 36.003 C 630.503 36.281 632.056 38.287 631.779 40.481 L 630.555 50.132 C 630.296 52.154 628.572 53.632 626.585 53.632 Z" fill="#305D8A"></path>
    <line x1="556.185" x2="535.985" y1="81.132" y2="67.032" fill="#fff"></line>
    <path d="M 556.185 85.132 C 555.395 85.132 554.601 84.902 553.901 84.417 L 533.697 70.366 C 531.882 69.103 531.432 66.609 532.696 64.791 C 533.954 62.972 536.445 62.522 538.271 63.789 L 558.476 77.839 C 560.29 79.103 560.741 81.598 559.477 83.416 C 558.699 84.534 557.452 85.132 556.185 85.132 Z" fill="#305D8A"></path>
    <line x1="588.685" x2="592.685" y1="48.332" y2="36.322" fill="#fff"></line>
    <path d="M 588.685 52.332 C 588.267 52.332 587.841 52.266 587.418 52.124 C 585.322 51.429 584.189 49.16 584.888 47.061 L 588.893 35.048 C 589.592 32.952 591.845 31.81 593.957 32.518 C 596.052 33.214 597.186 35.482 596.486 37.582 L 592.481 49.595 C 591.923 51.272 590.363 52.332 588.685 52.332 Z" fill="#305D8A"></path>
    <line x1="581.985" x2="588.085" y1="67.032" y2="74.132" fill="#fff"></line>
    <path d="M 588.085 78.132 C 586.964 78.132 585.849 77.662 585.056 76.748 L 578.983 69.72 C 577.536 68.047 577.724 65.517 579.393 64.07 C 581.063 62.628 583.589 62.807 585.043 64.481 L 591.116 71.508 C 592.562 73.181 592.376 75.711 590.706 77.158 C 589.947 77.812 589.017 78.132 588.085 78.132 Z" fill="#305D8A"></path>
    <line x1="605.885" x2="603.285" y1="64.332" y2="85.132" fill="#fff"></line>
    <path d="M 603.285 89.132 C 603.121 89.132 602.952 89.12 602.78 89.101 C 600.586 88.827 599.034 86.826 599.307 84.627 L 601.915 63.847 C 602.188 61.661 604.144 60.132 606.389 60.375 C 608.583 60.648 610.135 62.65 609.861 64.848 L 607.254 85.628 C 607 87.649 605.275 89.132 603.285 89.132 Z" fill="#305D8A"></path>
    <line x1="666.785" x2="682.785" y1="93.032" y2="85.132" fill="#fff"></line>
    <path d="M 666.785 97.032 C 665.307 97.032 663.888 96.215 663.191 94.803 C 662.21 92.821 663.023 90.419 665.005 89.438 L 681.023 81.523 C 683.017 80.542 685.415 81.355 686.387 83.337 C 687.369 85.319 686.556 87.722 684.574 88.703 L 668.556 96.617 C 667.985 96.899 667.379 97.032 666.785 97.032 Z" fill="#305D8A"></path>
    <line x1="676.785" x2="688.785" y1="104.432" y2="104.432" fill="#fff"></line>
    <path d="M 688.785 108.432 L 676.772 108.432 C 674.558 108.432 672.768 106.641 672.768 104.427 C 672.768 102.214 674.558 100.423 676.772 100.423 L 688.785 100.423 C 690.999 100.423 692.789 102.214 692.789 104.427 C 692.789 106.641 690.999 108.432 688.785 108.432 Z" fill="#305D8A"></path>
    <line x1="510.685" x2="526.685" y1="122.432" y2="135.132" fill="#fff"></line>
    <path d="M 526.685 139.132 C 525.816 139.132 524.941 138.851 524.202 138.269 L 508.184 125.591 C 506.453 124.218 506.159 121.699 507.532 119.964 C 508.9 118.232 511.411 117.934 513.159 119.311 L 529.177 131.989 C 530.908 133.361 531.201 135.88 529.829 137.616 C 529.038 138.612 527.864 139.132 526.685 139.132 Z" fill="#305D8A"></path>
    <line x1="523.685" x2="517.985" y1="111.432" y2="110.432" fill="#fff"></line>
    <path d="M 523.685 115.432 C 523.446 115.432 523.207 115.411 522.964 115.369 L 517.259 114.332 C 515.085 113.934 513.639 111.85 514.033 109.675 C 514.428 107.497 516.504 106.07 518.69 106.449 L 524.395 107.485 C 526.57 107.883 528.016 109.968 527.622 112.142 C 527.27 114.079 525.584 115.432 523.685 115.432 Z" fill="#305D8A"></path>
    <line x1="542.685" x2="557.785" y1="98.532" y2="110.432" fill="#fff"></line>
    <path d="M 557.785 114.432 C 556.92 114.432 556.049 114.155 555.313 113.577 L 540.207 101.704 C 538.471 100.34 538.166 97.821 539.535 96.081 C 540.899 94.345 543.414 94.032 545.158 95.409 L 560.263 107.281 C 561.999 108.645 562.304 111.164 560.936 112.904 C 560.146 113.909 558.973 114.432 557.785 114.432 Z" fill="#305D8A"></path>
    <line x1="572.685" x2="578.885" y1="101.732" y2="111.732" fill="#fff"></line>
    <path d="M 578.885 115.732 C 577.539 115.732 576.23 115.055 575.471 113.832 L 569.284 103.802 C 568.127 101.917 568.71 99.449 570.591 98.288 C 572.476 97.127 574.94 97.717 576.105 99.594 L 582.292 109.624 C 583.449 111.509 582.866 113.977 580.985 115.138 C 580.327 115.54 579.6 115.732 578.885 115.732 Z" fill="#305D8A"></path>
    <line x1="645.585" x2="657.185" y1="160.432" y2="147.732" fill="#fff"></line>
    <path d="M 645.585 164.432 C 644.615 164.432 643.646 164.084 642.879 163.38 C 641.248 161.882 641.139 159.353 642.632 157.722 L 654.263 145.04 C 655.756 143.409 658.294 143.3 659.92 144.794 C 661.552 146.291 661.66 148.821 660.167 150.452 L 648.537 163.134 C 647.747 163.995 646.668 164.432 645.585 164.432 Z" fill="#305D8A"></path>
    <line x1="666.785" x2="674.785" y1="166.932" y2="164.432" fill="#fff"></line>
    <path d="M 666.785 170.932 C 665.08 170.932 663.5 169.836 662.965 168.12 C 662.304 166.012 663.482 163.763 665.593 163.106 L 673.601 160.603 C 675.705 159.931 677.954 161.116 678.615 163.231 C 679.276 165.338 678.098 167.587 675.987 168.244 L 667.978 170.747 C 667.583 170.873 667.18 170.932 666.785 170.932 Z" fill="#305D8A"></path>
    <line x1="678.285" x2="701.685" y1="141.232" y2="138.132" fill="#fff"></line>
    <path d="M 678.285 145.232 C 676.306 145.232 674.591 143.77 674.32 141.759 C 674.027 139.566 675.567 137.552 677.758 137.259 L 701.186 134.126 C 703.403 133.856 705.393 135.377 705.686 137.564 C 705.98 139.758 704.439 141.771 702.249 142.065 L 678.821 145.197 C 678.641 145.221 678.462 145.232 678.285 145.232 Z" fill="#305D8A"></path>
    <line x1="693.385" x2="698.885" y1="160.432" y2="158.132" fill="#fff"></line>
    <path d="M 693.385 164.432 C 691.836 164.432 690.363 163.529 689.709 162.016 C 688.833 159.986 689.768 157.628 691.798 156.752 L 697.213 154.413 C 699.251 153.538 701.605 154.476 702.477 156.502 C 703.353 158.53 702.418 160.889 700.389 161.765 L 694.973 164.104 C 694.456 164.328 693.917 164.432 693.385 164.432 Z" fill="#305D8A"></path>
    <line x1="532.185" x2="516.685" y1="191.832" y2="204.532" fill="#fff"></line>
    <path d="M 516.685 208.532 C 515.524 208.532 514.371 208.032 513.581 207.062 C 512.182 205.349 512.435 202.824 514.148 201.427 L 529.679 188.745 C 531.401 187.345 533.918 187.599 535.315 189.312 C 536.715 191.024 536.461 193.55 534.748 194.946 L 519.217 207.628 C 518.469 208.235 517.573 208.532 516.685 208.532 Z" fill="#305D8A"></path>
    <line x1="540.685" x2="556.185" y1="172.432" y2="175.132" fill="#fff"></line>
    <path d="M 556.185 179.132 C 555.961 179.132 555.731 179.112 555.504 179.074 L 539.972 176.406 C 537.79 176.035 536.327 173.963 536.702 171.785 C 537.074 169.606 539.143 168.148 541.325 168.515 L 556.857 171.182 C 559.039 171.554 560.502 173.626 560.126 175.804 C 559.795 177.756 558.101 179.132 556.185 179.132 Z" fill="#305D8A"></path>
    <line x1="550.185" x2="565.385" y1="201.832" y2="191.832" fill="#fff"></line>
    <path d="M 550.185 205.832 C 548.887 205.832 547.612 205.202 546.841 204.036 C 545.621 202.191 546.126 199.708 547.972 198.487 L 563.106 188.476 C 564.948 187.252 567.43 187.757 568.655 189.607 C 569.875 191.453 569.37 193.935 567.525 195.156 L 552.391 205.167 C 551.71 205.616 550.944 205.832 550.185 205.832 Z" fill="#305D8A"></path>
    <line x1="594.385" x2="588.085" y1="182.132" y2="198.132" fill="#fff"></line>
    <path d="M 588.085 202.132 C 587.593 202.132 587.096 202.042 586.611 201.851 C 584.554 201.038 583.549 198.71 584.362 196.654 L 590.702 180.637 C 591.519 178.579 593.857 177.578 595.898 178.389 C 597.955 179.202 598.961 181.529 598.147 183.585 L 591.808 199.603 C 591.187 201.175 589.677 202.132 588.085 202.132 Z" fill="#305D8A"></path>
    <line x1="609.385" x2="612.885" y1="196.832" y2="204.532" fill="#fff"></line>
    <path d="M 612.885 208.532 C 611.367 208.532 609.913 207.669 609.24 206.198 L 605.72 198.521 C 604.797 196.512 605.681 194.134 607.691 193.211 C 609.732 192.295 612.087 193.176 613.002 195.182 L 616.522 202.858 C 617.445 204.869 616.561 207.246 614.551 208.169 C 614.008 208.416 613.44 208.532 612.885 208.532 Z" fill="#305D8A"></path>
    <line x1="570.685" x2="550.185" y1="144.332" y2="138.132" fill="#fff"></line>
    <path d="M 570.685 148.332 C 570.297 148.332 569.903 148.277 569.511 148.156 L 549.036 141.89 C 546.925 141.245 545.731 139.004 546.381 136.889 C 547.027 134.774 549.256 133.574 551.383 134.234 L 571.858 140.499 C 573.969 141.145 575.163 143.385 574.513 145.501 C 573.985 147.225 572.402 148.332 570.685 148.332 Z" fill="#305D8A"></path>
    <line x1="620.785" x2="624.085" y1="165.732" y2="158.132" fill="#fff"></line>
    <path d="M 620.785 169.732 C 620.249 169.732 619.702 169.623 619.178 169.396 C 617.152 168.504 616.234 166.142 617.121 164.117 L 620.456 156.522 C 621.348 154.498 623.698 153.586 625.735 154.465 C 627.76 155.357 628.679 157.719 627.792 159.744 L 624.456 167.339 C 623.796 168.84 622.325 169.732 620.785 169.732 Z" fill="#305D8A"></path>
    <line x1="645.485" x2="658.085" y1="190.132" y2="192.832" fill="#fff"></line>
    <path d="M 658.085 196.832 C 657.813 196.832 657.534 196.806 657.256 196.747 L 644.575 194.076 C 642.413 193.618 641.023 191.495 641.482 189.332 C 641.939 187.17 644.078 185.778 646.225 186.24 L 658.907 188.91 C 661.068 189.368 662.458 191.491 662 193.653 C 661.601 195.538 659.94 196.832 658.085 196.832 Z" fill="#305D8A"></path>
    <line x1="488.585" x2="724.885" y1="268.532" y2="268.532" fill="#fff"></line>
    <path d="M 724.885 272.532 L 488.635 272.532 C 486.422 272.532 484.63 270.741 484.63 268.527 C 484.63 266.314 486.422 264.523 488.635 264.523 L 724.885 264.523 C 727.098 264.523 728.889 266.314 728.889 268.527 C 728.889 270.741 727.098 272.532 724.885 272.532 Z" fill="#305D8A"></path>
    <path d="M -329.595 329.632 C -329.595 299.334 -354.071 274.769 -384.322 274.581 L -384.322 267.229 C -384.322 254.692 -394.489 244.53 -407.026 244.53 L -497.763 244.53 C -510.3 244.53 -520.467 254.692 -520.467 267.229 L -520.467 390.009 C -520.467 402.546 -510.3 412.709 -497.763 412.709 L -407.026 412.709 C -394.489 412.709 -384.322 402.546 -384.322 390.009 L -384.322 384.683 C -354.07 384.496 -329.595 359.93 -329.595 329.633 Z M -384.321 360.657 L -384.321 298.606 C -367.334 298.79 -353.62 312.602 -353.62 329.631 C -353.62 346.66 -367.334 360.473 -384.321 360.657 Z" fill="#EAE8E1"></path>
    <path d="M -407.025 416.732 L -497.762 416.732 C -512.489 416.732 -524.47 404.753 -524.47 390.027 L -524.47 267.247 C -524.47 252.52 -512.488 240.543 -497.762 240.543 L -407.025 240.543 C -392.298 240.543 -380.317 252.521 -380.317 267.247 L -380.317 270.751 C -349.796 272.995 -325.59 298.624 -325.59 329.649 C -325.59 360.674 -349.796 386.303 -380.317 388.548 L -380.317 390.026 C -380.317 404.753 -392.298 416.732 -407.025 416.732 Z M -497.762 248.552 C -508.074 248.552 -516.462 256.941 -516.462 267.248 L -516.462 390.028 C -516.462 400.337 -508.074 408.724 -497.762 408.724 L -407.025 408.724 C -396.712 408.724 -388.325 400.336 -388.325 390.028 L -388.325 384.702 C -388.325 382.501 -386.546 380.714 -384.345 380.698 C -356.366 380.526 -333.599 357.626 -333.599 329.651 C -333.599 301.676 -356.366 278.776 -384.345 278.604 C -386.547 278.589 -388.325 276.801 -388.325 274.6 L -388.325 267.248 C -388.325 256.94 -396.713 248.552 -407.025 248.552 L -497.762 248.552 Z M -384.322 364.682 C -385.378 364.682 -386.386 364.268 -387.137 363.525 C -387.899 362.774 -388.325 361.751 -388.325 360.678 L -388.325 298.627 C -388.325 297.556 -387.899 296.531 -387.137 295.78 C -386.374 295.025 -385.299 294.549 -384.279 294.623 C -365.165 294.83 -349.617 310.543 -349.617 329.652 C -349.617 348.762 -365.165 364.475 -384.279 364.681 C -384.294 364.682 -384.306 364.682 -384.322 364.682 Z M -380.318 302.98 L -380.318 356.326 C -367.488 354.23 -357.626 343.019 -357.626 329.653 C -357.626 316.287 -367.488 305.076 -380.318 302.98 Z" fill="#305D8A"></path>
    <g opacity=".2" transform="matrix(1, 0, 0, 1, -958.115051, -951.667725)">
      <path d="m573.8 1226.3v-7.352c0-12.537-10.167-22.699-22.704-22.699h-29.352v168.18h29.352c12.537 0 22.704-10.163 22.704-22.7v-5.326c30.251-0.188 54.727-24.753 54.727-55.051s-24.476-54.864-54.727-55.051zm0 86.076v-62.051c16.987 0.184 30.701 13.996 30.701 31.025s-13.714 30.842-30.701 31.026z" fill="#9DB6C9"></path>
    </g>
    <line x1="-496.435" x2="-408.345" y1="260.532" y2="260.532" fill="#fff"></line>
    <path d="M -408.345 264.532 L -496.439 264.532 C -498.652 264.532 -500.443 262.741 -500.443 260.527 C -500.443 258.314 -498.652 256.523 -496.439 256.523 L -408.345 256.523 C -406.132 256.523 -404.34 258.314 -404.34 260.527 C -404.34 262.741 -406.132 264.532 -408.345 264.532 Z" fill="#305D8A"></path>
  </g>
  <g class="b" transform="matrix(0.083333, 0, 0, 0.083333, 23.457323, 26.240446)">
    <title>VSLogo</title>
    <path class="c" d="M13.87,75.4a4,4,0,0,1-4.14.65L2.46,73A4,4,0,0,1,0,69.33V26.67A4,4,0,0,1,2.46,23l7.27-3a4,4,0,0,1,4.14.65L15.5,22A2.21,2.21,0,0,0,12,23.8V72.2A2.21,2.21,0,0,0,15.5,74Z" transform="translate(0 -0.25)" style="fill: rgb(82, 33, 138);"></path>
    <path class="d" d="M2.46,73A4,4,0,0,1,0,69.33V69a2.31,2.31,0,0,0,4,1.55L66,2A6,6,0,0,1,72.82.84L92.6,10.36A6,6,0,0,1,96,15.77V16a3.79,3.79,0,0,0-6.19-2.93L15.5,74l-1.63,1.4a4,4,0,0,1-4.14.65Z" transform="translate(0 -0.25)" style="fill: rgb(108, 51, 175);"></path>
    <path class="e" d="M2.46,23A4,4,0,0,0,0,26.67V27a2.31,2.31,0,0,1,4-1.55L66,94a6,6,0,0,0,6.82,1.16L92.6,85.64A6,6,0,0,0,96,80.23V80a3.79,3.79,0,0,1-6.19,2.93L15.5,22l-1.63-1.4A4,4,0,0,0,9.73,20Z" transform="translate(0 -0.25)" style="fill: rgb(133, 76, 199);"></path>
    <path class="f" d="M72.82,95.16A6,6,0,0,1,66,94a3.52,3.52,0,0,0,6-2.49v-87A3.52,3.52,0,0,0,66,2,6,6,0,0,1,72.82.84L92.6,10.35A6,6,0,0,1,96,15.76V80.24a6,6,0,0,1-3.4,5.41Z" transform="translate(0 -0.25)" style="fill: rgb(177, 121, 241);"></path>
    <g class="g" style="opacity: 0.25;">
      <path class="h" d="M68.89,95.6a6,6,0,0,0,3.93-.44L92.6,85.65A6,6,0,0,0,96,80.24V15.76a6,6,0,0,0-3.4-5.41L72.82.84A6,6,0,0,0,68.34.55,6,6,0,0,0,66,2L34.12,37.26,15.5,22l-1.63-1.4a4,4,0,0,0-3.61-.83,2.55,2.55,0,0,0-.53.18L2.46,23A4,4,0,0,0,0,26.37c0,.1,0,.2,0,.3V69.33c0,.1,0,.2,0,.3A4,4,0,0,0,2.46,73l7.27,3a2.55,2.55,0,0,0,.53.18,4,4,0,0,0,3.61-.83L15.5,74,34.12,58.74,66,94A6,6,0,0,0,68.89,95.6ZM72,27.68,47.21,48,72,68.32ZM12,34.27,24.41,48,12,61.73Z" transform="translate(0 -0.25)" style="fill: url(#b); fill-rule: evenodd;"></path>
    </g>
  </g>
  <g id="Symbols" transform="matrix(0.12254, 0, 0, 0.12254, 21.889713, 20.743309)">
    <title>nuget</title>
    <g id="Logo-Header-3">
      <g id="Logo-Header-2">
        <g id="mark-2-path">
          <path class="cls-1" d="M19.52,5.65H12.84A6.91,6.91,0,0,0,5.9,12.57v6.68a6.91,6.91,0,0,0,6.91,6.91h6.68a6.91,6.91,0,0,0,6.91-6.92V12.57A6.91,6.91,0,0,0,19.52,5.65Zm-6.75,7.47A2,2,0,1,1,13,10.6,2,2,0,0,1,12.77,13.12Zm6.63,9.69a3.5,3.5,0,1,1,3.5-3.5A3.5,3.5,0,0,1,19.4,22.81Z" style="fill: rgb(255, 255, 255); stroke: rgb(0, 36, 64); stroke-width: 1.5px;"></path>
        </g>
        <path id="Shape" class="cls-1" d="M87.65,16.86a7.08,7.08,0,0,0-1.47-4.71A5.25,5.25,0,0,0,82,10.36a5.84,5.84,0,0,0-4.5,2,7.3,7.3,0,0,0-1.81,5.08,7.42,7.42,0,0,0,1.64,5.1,5.81,5.81,0,0,0,4.56,1.89,7.69,7.69,0,0,0,4.62-1.29l.31-.22V19.17l-1.21,1a5.15,5.15,0,0,1-3.26,1.18A3,3,0,0,1,80,20.49a3.29,3.29,0,0,1-.81-1.83h8.44Zm-8.26-1.37a3.33,3.33,0,0,1,.77-1.27,2.36,2.36,0,0,1,1.77-.75,2,2,0,0,1,1.63.66,2.67,2.67,0,0,1,.57,1.35Z" style="fill: rgb(255, 255, 255); stroke: rgb(0, 36, 64); stroke-width: 1.5px;"></path>
        <path id="Shape-2" data-name="Shape" class="cls-1" d="M56.54,18.3a3.23,3.23,0,0,1-.72,2.22,2.19,2.19,0,0,1-1.75.78c-1.47,0-2.16-.89-2.16-3V10.64H48.5v7.92c0,3.79,1.73,5.86,5,5.86a4.81,4.81,0,0,0,3-.94v.66h3.42V10.64H56.54Z" style="fill: rgb(255, 255, 255); stroke: rgb(0, 36, 64); stroke-width: 1.5px;"></path>
        <path id="Shape-3" data-name="Shape" class="cls-1" d="M71,11.2l-.07.15a4.92,4.92,0,0,0-2.8-1,5.61,5.61,0,0,0-4.59,2.09,8.28,8.28,0,0,0-1.63,5.35,7.19,7.19,0,0,0,1.53,4.8,5.21,5.21,0,0,0,4.16,1.87A5.67,5.67,0,0,0,71,23.06c-.1,2.5-1.25,3.63-3.65,3.63a7.16,7.16,0,0,1-3.48-1l-1.12-.63v3.67l.41.21a9.12,9.12,0,0,0,4.21.93c4.62,0,7-2.56,7-7.39V10.59H71ZM71,18a3.58,3.58,0,0,1-.82,2.46,2.56,2.56,0,0,1-2,.9,2.35,2.35,0,0,1-2-.92,4.29,4.29,0,0,1-.8-2.75,5.13,5.13,0,0,1,.85-3.18,2.56,2.56,0,0,1,2.18-1,2.4,2.4,0,0,1,1.85.79,2.72,2.72,0,0,1,.76,2Z" style="fill: rgb(255, 255, 255); stroke: rgb(0, 36, 64); stroke-width: 1.5px;"></path>
        <path id="Shape-4" data-name="Shape" class="cls-1" d="M41.83,10.36a5.06,5.06,0,0,0-3.23,1.07v-.79H35.18v13.5H38.6V16.55a3.27,3.27,0,0,1,.76-2.24,2.28,2.28,0,0,1,1.82-.83c1.39,0,2,.9,2,3.07v7.59h3.47V16.06a6.37,6.37,0,0,0-1.21-4.15A4.41,4.41,0,0,0,41.83,10.36Z" style="fill: rgb(255, 255, 255); stroke: rgb(0, 36, 64); stroke-width: 1.5px;"></path>
        <path id="Shape-5" data-name="Shape" class="cls-1" d="M96.09,13.78V10.64h-3V6.81l-3.44,1.1v2.73H87.58v3.14h2.07v6.35c0,2.74,1.37,4.27,3.9,4.27a4.42,4.42,0,0,0,2.16-.47l.39-.21V20.13L94.9,21a1.27,1.27,0,0,1-.8.25c-.42,0-.66-.09-.77-.23a2.23,2.23,0,0,1-.25-1.26v-6Z" style="fill: rgb(255, 255, 255); stroke: rgb(0, 36, 64); stroke-width: 1.5px;"></path>
        <g id="Oval">
          <circle id="path-2" class="cls-1" cx="3.65" cy="4.06" r="2" style="fill: rgb(255, 255, 255); stroke: rgb(0, 36, 64); stroke-width: 1.5px;"></circle>
          <circle class="cls-1" cx="3.65" cy="4.06" r="2.75" style="fill: rgb(255, 255, 255); stroke: rgb(0, 36, 64); stroke-width: 1.5px;"></circle>
        </g>
      </g>
    </g>
  </g>
  <g transform="matrix(0.013158, 0, 0, 0.013158, 16.965733, 22.318367)">
    <title>.NET</title>
    <rect width="456" height="456" fill="#512BD4" x="-192.332" y="-178.448"></rect>
    <path d="M -111.058 112.885 C -114.283 112.885 -117.023 111.811 -119.28 109.662 C -121.537 107.458 -122.666 104.841 -122.666 101.811 C -122.666 98.725 -121.537 96.081 -119.28 93.877 C -117.023 91.673 -114.283 90.571 -111.058 90.571 C -107.78 90.571 -105.013 91.673 -102.756 93.877 C -100.445 96.081 -99.29 98.725 -99.29 101.811 C -99.29 104.841 -100.445 107.458 -102.756 109.662 C -105.013 111.811 -107.78 112.885 -111.058 112.885 Z" fill="white"></path>
    <path d="M 17.835 111.067 L -3.123 111.067 L -58.338 23.958 C -59.735 21.754 -60.891 19.467 -61.804 17.098 L -62.288 17.098 C -61.858 19.633 -61.643 25.06 -61.643 33.379 L -61.643 111.067 L -80.183 111.067 L -80.183 -7.448 L -57.855 -7.448 L -4.493 77.595 C -2.236 81.122 -0.785 83.546 -0.14 84.868 L 0.182 84.868 C -0.355 81.728 -0.624 76.411 -0.624 68.917 L -0.624 -7.448 L 17.835 -7.448 L 17.835 111.067 Z" fill="white"></path>
    <path d="M 108.117 111.067 L 43.229 111.067 L 43.229 -7.448 L 105.538 -7.448 L 105.538 9.247 L 62.414 9.247 L 62.414 42.801 L 102.153 42.801 L 102.153 59.413 L 62.414 59.413 L 62.414 94.455 L 108.117 94.455 L 108.117 111.067 Z" fill="white"></path>
    <path d="M 200.335 9.247 L 167.125 9.247 L 167.125 111.067 L 147.94 111.067 L 147.94 9.247 L 114.811 9.247 L 114.811 -7.448 L 200.335 -7.448 L 200.335 9.247 Z" fill="white"></path>
  </g>
  <g transform="matrix(0.011539, 0, 0, 0.011539, 17.210966, 30.13876)">
    <title>C#Logo</title>
    <g clip-path="url(#hexagon)" transform="matrix(1, 0, 0, 1, -191.822144, -206.447525)">
      <rect fill="url(#centre)" x="222.588" y="124.487" width="267.464" height="273.493"></rect>
      <polygon fill="url(#bottom)" points="490.052,407.802 145.845,208.63 -29.911,208.63 -29.911,538.353 490.052,538.353"></polygon>
      <polygon fill="url(#top)" points="-29.911,405.093 490.052,104.208 490.052,-14.513 -29.911,-14.513"></polygon>
    </g>
    <path id="c" fill="#fff" d="M -115.992 49.553 C -116.883 -98.536 81.467 -163.926 167.004 -26.325 L 101.369 11.655 C 61.747 -53.879 -36.632 -30.446 -40.163 49.552 C -39.103 123.281 57.591 157.53 101.373 87.445 L 167.008 125.424 C 91.626 256.287 -112.19 209.205 -115.992 49.553 Z"></path>
    <g id="sharp" aria-label="" data-name="" transform="matrix(1, 0, 0, 1, -191.822144, -206.447525)">
      <polygon fill="#fff" points="326,213 338.5,213 329.959,295.5 317.224,295.5"></polygon>
      <polygon fill="#fff" points="352.776,213 365.276,213 356.735,295.5 344,295.5"></polygon>
      <rect fill="#fff" x="312" y="232.592" width="62.5" height="12.072"></rect>
      <rect fill="#fff" x="308.5" y="262" width="62.5" height="12.072"></rect>
    </g>
  </g>
  <title>BrandVisualStudioWin2019</title>
</svg>