<svg id="svg2191" version="1.1" viewBox="126.511 12.514 261.156 257.5" height="1080" width="1920" xmlns="http://www.w3.org/2000/svg">
  <defs id="defs2185"></defs>
  <g transform="translate(0,-11.249992)" id="layer1">
    <path style="opacity:0.1;fill:#000000;fill-rule:evenodd;stroke:none;stroke-width:0.99999994px;stroke-linecap:butt;stroke-linejoin:miter;stroke-opacity:1" d="M 283.546 69.775 L 203.039 241.166 L 258.871 296.998 L 508 296.998 L 508 199.363 Z" id="path2521"></path>
    <path style="color:#0078D4;clip-rule:nonzero;display:inline;overflow:visible;visibility:visible;opacity:1;isolation:auto;mix-blend-mode:normal;color-interpolation:sRGB;color-interpolation-filters:linearRGB;solid-color:#000000;solid-opacity:1;fill:#0078D4;fill-opacity:1;fill-rule:nonzero;stroke:none;stroke-width:13.80979061;stroke-linecap:round;stroke-linejoin:round;stroke-miterlimit:4;stroke-dasharray:none;stroke-dashoffset:0;stroke-opacity:1;color-rendering:auto;image-rendering:auto;shape-rendering:auto;text-rendering:auto;enable-background:accumulate" d="M 273.223 67.087 C 271.687 67.055 270.152 67.176 268.641 67.449 C 256.657 69.618 248.436 80.746 249.886 92.838 C 250.335 96.51 251.663 100.02 253.756 103.07 L 203.038 103.07 L 203.038 154.087 C 198.018 150.582 191.808 149.222 185.782 150.308 C 173.798 152.476 165.578 163.605 167.028 175.697 C 168.477 187.789 179.096 196.659 191.253 195.932 C 195.486 195.67 199.565 194.243 203.038 191.808 L 203.038 241.168 L 253.756 241.168 C 251.663 238.118 250.335 234.608 249.886 230.936 C 248.436 218.844 256.657 207.716 268.641 205.547 C 280.625 203.379 292.224 210.921 295.103 222.755 L 295.755 228.196 C 295.755 232.824 294.359 237.345 291.75 241.168 L 341.136 241.168 L 341.136 191.808 C 337.663 194.243 333.584 195.67 329.351 195.932 C 317.194 196.659 306.575 187.789 305.125 175.697 C 303.676 163.605 311.896 152.476 323.88 150.308 C 329.906 149.222 336.116 150.582 341.136 154.087 L 341.136 103.07 L 291.75 103.07 C 294.359 99.247 295.755 94.726 295.755 90.098 L 295.103 84.657 C 292.636 74.517 283.656 67.306 273.223 67.087 Z" id="path2502"></path>
  </g>
</svg>